<svg width="469" height="132" viewBox="0 0 469 132" fill="none" xmlns="http://www.w3.org/2000/svg">
<path d="M90.3535 130H3.07812V113.301L44.4746 68.8281C47.6973 65.3125 50.4219 62.1191 52.6484 59.248C54.875 56.377 56.6914 53.7402 58.0977 51.3379C59.4453 48.9941 60.4121 46.7969 60.998 44.7461C61.6426 42.6953 61.9648 40.7031 61.9648 38.7695C61.9648 35.8984 61.5547 33.3496 60.7344 31.123C59.9141 28.8965 58.7715 26.9922 57.3066 25.4102C55.7832 23.8867 53.9668 22.7148 51.8574 21.8945C49.8066 21.0742 47.5215 20.6641 45.002 20.6641C41.7207 20.6641 38.8203 21.1328 36.3008 22.0703C33.8398 22.9492 31.7891 24.2676 30.1484 26.0254C28.4492 27.8418 27.1602 30.0977 26.2812 32.793C25.4023 35.4883 24.9629 38.5645 24.9629 42.0215H0.441406C0.441406 36.3379 1.52539 30.9766 3.69336 25.9375C5.86133 20.8398 8.9375 16.3867 12.9219 12.5781C16.8477 8.76953 21.5938 5.78125 27.1602 3.61328C32.7852 1.38672 38.9961 0.273438 45.793 0.273438C52.2969 0.273438 58.0391 1.18164 63.0195 2.99805C68.0586 4.81445 72.2773 7.36328 75.6758 10.6445C79.0156 13.9258 81.5645 17.8809 83.3223 22.5098C85.0801 27.0801 85.959 32.1484 85.959 37.7148C85.959 41.9336 85.2852 45.9766 83.9375 49.8438C82.6484 53.6523 80.8027 57.4316 78.4004 61.1816C75.9395 64.9316 73.0098 68.7695 69.6113 72.6953C66.2129 76.5625 62.4336 80.6348 58.2734 84.9121L34.1914 110.4H90.3535V130ZM216.107 81.3086C216.107 89.5703 215.141 96.8652 213.207 103.193C211.332 109.463 208.607 114.707 205.033 118.926C201.459 123.203 197.094 126.426 191.938 128.594C186.781 130.762 180.98 131.846 174.535 131.846C168.148 131.846 162.377 130.762 157.221 128.594C152.064 126.426 147.699 123.203 144.125 118.926C140.492 114.707 137.68 109.463 135.688 103.193C133.754 96.8652 132.787 89.5703 132.787 81.3086V50.7227C132.787 42.4609 133.754 35.1953 135.688 28.9258C137.621 22.5977 140.404 17.2949 144.037 13.0176C147.611 8.79883 151.947 5.60547 157.045 3.4375C162.201 1.26953 167.973 0.185547 174.359 0.185547C180.805 0.185547 186.605 1.26953 191.762 3.4375C196.918 5.60547 201.312 8.79883 204.945 13.0176C208.52 17.2949 211.273 22.5977 213.207 28.9258C215.141 35.1953 216.107 42.4609 216.107 50.7227V81.3086ZM157.396 70.7617L191.498 45.3613C191.381 40.5566 190.854 36.4551 189.916 33.0566C189.037 29.5996 187.719 26.8457 185.961 24.7949C184.613 23.1543 182.943 21.9531 180.951 21.1914C179.018 20.3711 176.82 19.9609 174.359 19.9609C171.605 19.9609 169.174 20.4883 167.064 21.543C165.014 22.5391 163.285 24.0625 161.879 26.1133C160.355 28.2813 159.213 31.0938 158.451 34.5508C157.748 38.0078 157.396 42.1094 157.396 46.8555V61.0059C157.396 63.8184 157.396 65.6934 157.396 66.6309C157.396 67.5684 157.396 68.9453 157.396 70.7617ZM191.498 85V70.1465C191.498 68.2129 191.498 66.8066 191.498 65.9277C191.498 64.9902 191.498 63.6719 191.498 61.9727L157.396 87.2852C157.514 91.1523 157.895 94.5801 158.539 97.5684C159.242 100.557 160.209 103.047 161.439 105.039C162.846 107.441 164.633 109.229 166.801 110.4C168.969 111.572 171.547 112.158 174.535 112.158C177.289 112.158 179.721 111.66 181.83 110.664C183.939 109.609 185.697 108.027 187.104 105.918C188.568 103.691 189.652 100.85 190.355 97.3926C191.117 93.877 191.498 89.7461 191.498 85ZM330.26 82.4512H345.113V102.227H330.26V130H305.826V102.227H252.652L251.686 86.9336L305.475 2.03125H330.26V82.4512ZM275.68 82.4512H305.826V34.9023L303.453 39.1211L275.68 82.4512ZM465.33 36.0449C465.33 39.5605 464.803 42.8711 463.748 45.9766C462.752 49.0234 461.316 51.8359 459.441 54.4141C457.977 56.3477 456.248 58.1641 454.256 59.8633C452.322 61.5039 450.154 62.9395 447.752 64.1699C449.92 65.2246 451.971 66.4258 453.904 67.7734C455.838 69.0625 457.566 70.5273 459.09 72.168C461.902 75.0977 464.1 78.4961 465.682 82.3633C467.264 86.2305 468.055 90.4492 468.055 95.0195C468.055 101.055 466.941 106.357 464.715 110.928C462.547 115.498 459.559 119.307 455.75 122.354C451.883 125.459 447.342 127.803 442.127 129.385C436.912 130.967 431.287 131.758 425.252 131.758C419.158 131.758 413.475 130.967 408.201 129.385C402.986 127.803 398.445 125.459 394.578 122.354C390.711 119.307 387.664 115.498 385.438 110.928C383.27 106.357 382.186 101.055 382.186 95.0195C382.186 91.5039 382.654 88.1934 383.592 85.0879C384.588 81.9238 385.965 79.0234 387.723 76.3867C389.48 73.8086 391.59 71.4941 394.051 69.4434C396.57 67.334 399.383 65.5469 402.488 64.082C399.852 62.7344 397.449 61.123 395.281 59.248C393.172 57.373 391.385 55.293 389.92 53.0078C388.338 50.6055 387.107 47.9688 386.229 45.0977C385.408 42.2266 384.998 39.209 384.998 36.0449C384.998 30.2441 385.994 25.1465 387.986 20.752C389.979 16.2988 392.762 12.5488 396.336 9.50195C399.852 6.45508 404.041 4.16992 408.904 2.64648C413.826 1.06445 419.188 0.273438 424.988 0.273438C430.789 0.273438 436.15 1.06445 441.072 2.64648C445.994 4.16992 450.271 6.45508 453.904 9.50195C457.479 12.5488 460.262 16.2988 462.254 20.752C464.305 25.1465 465.33 30.2441 465.33 36.0449ZM443.533 93.3496C443.533 90.4199 443.094 87.7832 442.215 85.4395C441.336 83.0957 440.105 81.0742 438.523 79.375C436.883 77.7344 434.92 76.4746 432.635 75.5957C430.408 74.7168 427.889 74.2773 425.076 74.2773C422.264 74.2773 419.715 74.7168 417.43 75.5957C415.203 76.4746 413.299 77.7344 411.717 79.375C410.135 81.0742 408.904 83.0957 408.025 85.4395C407.146 87.7832 406.707 90.4199 406.707 93.3496C406.707 96.3965 407.176 99.1211 408.113 101.523C409.051 103.926 410.369 105.918 412.068 107.5C413.65 109.023 415.555 110.195 417.781 111.016C420.008 111.777 422.498 112.158 425.252 112.158C427.947 112.158 430.408 111.748 432.635 110.928C434.861 110.049 436.795 108.789 438.436 107.148C440.018 105.508 441.248 103.545 442.127 101.26C443.064 98.916 443.533 96.2793 443.533 93.3496ZM440.984 37.1875C440.984 34.6094 440.604 32.2656 439.842 30.1562C439.08 28.0469 438.025 26.2305 436.678 24.707C435.271 23.2422 433.572 22.0996 431.58 21.2793C429.646 20.459 427.42 20.0488 424.9 20.0488C422.439 20.0488 420.242 20.459 418.309 21.2793C416.375 22.041 414.764 23.1543 413.475 24.6191C412.127 26.084 411.102 27.9004 410.398 30.0684C409.754 32.1777 409.432 34.5508 409.432 37.1875C409.432 39.7656 409.783 42.1387 410.486 44.3066C411.189 46.416 412.244 48.2324 413.65 49.7559C414.998 51.2793 416.639 52.4805 418.572 53.3594C420.564 54.1797 422.791 54.5898 425.252 54.5898C427.713 54.5898 429.91 54.1797 431.844 53.3594C433.777 52.4805 435.418 51.2793 436.766 49.7559C438.113 48.2324 439.139 46.416 439.842 44.3066C440.604 42.1387 440.984 39.7656 440.984 37.1875Z" fill="#D9D9D9"/>
</svg>
